/* XPM */
static char * LiveHTTPHeaders_xpm[] = {
"16 16 29 1",
" 	c None",
".	c #E6E6E6",
"+	c #B6B6B6",
"@	c #A9A9A9",
"#	c #DADADA",
"$	c #9A9A9A",
"%	c #565656",
"&	c #FDFCFC",
"*	c #C7C7C7",
"=	c #686868",
"-	c #7A7A7A",
";	c #734A00",
">	c #838383",
",	c #966200",
"'	c #B97A00",
")	c #FF7348",
"!	c #B93D00",
"~	c #DC9200",
"{	c #FFAA00",
"]	c #FFB848",
"^	c #FFC66B",
"/	c #FFC7B1",
"(	c #FF8F6B",
"_	c #FFE2B1",
":	c #383838",
"<	c #262626",
"[	c #040404",
"}	c #1A1A1A",
"|	c #4A4A4A",
"     .++++.     ",
"    @@#..#@$.   ",
"  .%$++&.+*$=.  ",
" .-;>>@&#>>>;=  ",
" @;;,,@&*,,,;;$ ",
".,,,,,+&$,,,,,,.",
"#,''''#&)!'''',+",
"+'''''.&'''''''@",
"+~~~~~&&~~~~~~~@",
"*~{]^/&#-'~~{{~+",
" (_>:>&@<<:%,~'#",
" @:[[$&&&&&*[}> ",
"  %[[=$$$@$=[|# ",
"  .>|[[[[[[:=*  ",
"   .@-==%-->#   ",
"     #+$$@#.    "};
